<?xml version="1.0" encoding="UTF-8"?>
<svg version="1.1" xmlns="http://www.w3.org/2000/svg" width="1024" height="1024">
<path d="M0 0 C337.92 0 675.84 0 1024 0 C1024 337.92 1024 675.84 1024 1024 C686.08 1024 348.16 1024 0 1024 C0 686.08 0 348.16 0 0 Z " fill="#EDEDED" transform="translate(0,0)"/>
<path d="M0 0 C1.95665927 -0.00701996 1.95665927 -0.00701996 3.952847 -0.01418173 C7.53975001 -0.02660464 11.12641088 -0.02056157 14.71331429 -0.01122308 C18.59477574 -0.00439684 22.47619739 -0.01493142 26.35765076 -0.02316284 C33.94807494 -0.03646446 41.53840986 -0.03363842 49.12883747 -0.02492492 C55.3007479 -0.01813467 61.47263341 -0.01723744 67.64454651 -0.02049637 C68.52479619 -0.02095607 69.40504587 -0.02141577 70.31196979 -0.0218894 C72.10048561 -0.02284862 73.88900143 -0.02382127 75.67751724 -0.02480717 C92.42691221 -0.0333506 109.17625782 -0.02354339 125.9256447 -0.00740607 C140.28032917 0.00599616 154.63494086 0.00366777 168.98962402 -0.01016235 C185.68132522 -0.02623669 202.37298321 -0.03252672 219.06469107 -0.02332556 C220.84642632 -0.02236997 222.62816158 -0.02142686 224.40989685 -0.02049637 C225.28641963 -0.02003354 226.16294241 -0.01957072 227.06602648 -0.01909386 C233.22660983 -0.01650953 239.38716566 -0.02086293 245.54774475 -0.02793503 C253.06104036 -0.03637085 260.574242 -0.03402627 268.08752692 -0.0180928 C271.91690337 -0.010238 275.74612347 -0.00707049 279.57549858 -0.01704025 C283.73528147 -0.02770601 287.89467357 -0.01492412 292.05444336 0 C293.25251633 -0.00669217 294.4505893 -0.01338433 295.68496752 -0.02027929 C314.18275053 0.10804671 329.13025045 6.61776386 342.71472168 19.00595093 C354.48169623 31.35281745 359.16195013 47.33009095 359.02842712 64.04318237 C359.03396152 65.35593785 359.03949592 66.66869332 359.04519802 68.02122927 C359.05982138 71.62681738 359.04985078 75.2319629 359.03546131 78.8375361 C359.02427981 82.74081734 359.03631768 86.6440401 359.04530334 90.5473175 C359.05918929 98.17874386 359.05171412 105.810004 359.03662776 113.44142234 C359.01970968 122.34045287 359.02298523 131.23944265 359.02672184 140.1384843 C359.03259192 156.02353918 359.01846239 171.90851464 358.99377441 187.79354858 C358.96985618 203.18518043 358.96277127 218.57670618 358.9732666 233.96835327 C358.98469246 250.75456412 358.98658528 267.54072597 358.97216851 284.32693624 C358.97064277 286.11906528 358.96912241 287.91119432 358.9676075 289.70332336 C358.96684968 290.58493866 358.96609187 291.46655396 358.96531109 292.37488487 C358.96058115 298.56856981 358.96241052 304.76223277 358.9666729 310.95591736 C358.97161477 318.51052171 358.96554767 326.06502604 358.9457786 333.61960757 C358.9359505 337.46936294 358.93075262 341.31896647 358.93867111 345.16872978 C358.94709954 349.35220195 358.93206419 353.535274 358.91490173 357.71871948 C358.9239168 359.52210934 358.9239168 359.52210934 358.93311399 361.36193132 C358.80629499 378.43207739 353.88521658 393.77255094 341.84362793 406.20126343 C330.36329517 417.00400488 316.02641227 424.49153608 299.96356106 424.51237869 C298.29292399 424.51814041 298.29292399 424.51814041 296.58853668 424.52401853 C295.37007382 424.52315204 294.15161095 424.52228556 292.89622498 424.52139282 C291.59776644 424.52436394 290.2993079 424.52733507 288.96150213 424.53039622 C285.35886023 424.53845511 281.75623826 424.54025518 278.15358841 424.54099369 C274.26724281 424.54284622 270.38090751 424.55039465 266.49456787 424.55712891 C257.99639679 424.57070567 249.49823043 424.57673615 241.00005031 424.58113956 C235.69137837 424.58390355 230.38270826 424.58814123 225.07403755 424.59264374 C210.3696946 424.6048364 195.66535311 424.61513517 180.96100521 424.61851883 C180.02003157 424.6187384 179.07905793 424.61895796 178.10956994 424.61918418 C176.69476635 424.6195116 176.69476635 424.6195116 175.25138086 424.61984563 C173.34015397 424.62028909 171.42892708 424.62073565 169.5177002 424.6211853 C168.56966932 424.62140673 167.62163844 424.62162816 166.64487935 424.6218563 C151.29204845 424.62580218 135.93926508 424.64324981 120.58645254 424.66654482 C104.81578135 424.69028022 89.04513398 424.70272171 73.27444464 424.70388675 C64.42315525 424.70480237 55.57192775 424.71052606 46.72065544 424.72870636 C39.18158383 424.74413701 31.64259323 424.74921042 24.10350882 424.74096826 C20.25999564 424.737072 16.41664547 424.73794093 12.57315254 424.7520256 C8.39768636 424.7671862 4.22258456 424.75886762 0.04710388 424.7484436 C-1.75716783 424.76052821 -1.75716783 424.76052821 -3.59788948 424.77285695 C-21.17276148 424.6705474 -36.42197502 418.62706673 -48.84777832 406.20126343 C-61.83955463 392.24283709 -65.78785761 376.71197386 -65.74020386 358.07948303 C-65.74473497 356.76929083 -65.74926608 355.45909863 -65.7539345 354.10920364 C-65.7660955 350.49696419 -65.76591226 346.88481784 -65.76354575 343.27256262 C-65.76313583 339.36719012 -65.77419326 335.46184678 -65.78366089 331.55648804 C-65.80023329 323.9146773 -65.80576871 316.27289743 -65.80688564 308.63107022 C-65.80783779 302.41669406 -65.81195635 296.20232804 -65.8182869 289.98795509 C-65.83588806 272.34953843 -65.84512738 254.71114606 -65.84362595 237.07272055 C-65.84354604 236.12296441 -65.84346612 235.17320826 -65.84338379 234.19467163 C-65.84330203 233.24374934 -65.84322027 232.29282705 -65.84313603 231.31308893 C-65.84232316 215.90303269 -65.86146385 200.49307419 -65.88966052 185.08304622 C-65.91841784 169.24101606 -65.93219929 153.39903353 -65.93047297 137.55697662 C-65.92981011 128.67050247 -65.93525673 119.78413085 -65.95682907 110.89768028 C-65.97507826 103.33201932 -65.97935751 95.76650737 -65.96581022 88.20083388 C-65.95929973 84.34496716 -65.95909345 80.48938602 -65.97651672 76.63354683 C-65.99525561 72.44327387 -65.98264335 68.25365635 -65.96725464 64.06336975 C-65.97754176 62.85906348 -65.98782889 61.65475722 -65.99842775 60.41395682 C-65.86815252 44.29686361 -59.87489258 30.31034462 -48.81652832 18.66220093 C-34.95545239 5.17075369 -19.12135281 -0.10680756 0 0 Z " fill="#1C1C1C" transform="translate(365.4727783203125,299.6190490722656)"/>
<path d="M0 0 C4.73023752 3.5160589 9.04407205 8.06760755 11.19140625 13.62890625 C12.36591126 22.37013379 11.95650944 29.32785856 6.62890625 36.578125 C5.82453125 37.58488281 5.02015625 38.59164062 4.19140625 39.62890625 C3.14754567 40.98790098 2.10606363 42.34872455 1.06640625 43.7109375 C-1.30788338 46.80386889 -3.70552024 49.87671409 -6.12109375 52.9375 C-9.60854402 57.35987208 -13.02726337 61.83143891 -16.43359375 66.31640625 C-21.49440123 72.96139334 -26.67056007 79.50407178 -31.90625 86.01171875 C-36.13283983 91.26777199 -40.28634183 96.58104573 -44.4453125 101.890625 C-45.82439774 103.64905747 -47.20662226 105.40497604 -48.58984375 107.16015625 C-53.37424612 113.23298979 -58.12682093 119.32763699 -62.83496094 125.45996094 C-71.51054758 136.75510215 -80.24021657 147.99184754 -89.26489258 159.01098633 C-92.37291657 162.81951733 -95.38395406 166.67611454 -98.30859375 170.62890625 C-101.93190283 175.49334883 -105.61061341 180.30745354 -109.37109375 185.06640625 C-109.88929688 185.74123047 -110.4075 186.41605469 -110.94140625 187.11132812 C-116.0990127 193.56803094 -123.00653942 198.88305173 -131.421875 199.96484375 C-140.47099226 200.09580058 -146.31253145 197.5232423 -152.984375 191.49609375 C-155.95705621 188.45339221 -158.5725897 185.14420143 -161.22265625 181.8203125 C-164.1496781 178.16787822 -167.22870256 174.65246909 -170.30859375 171.12890625 C-174.80622503 165.97158793 -179.19986798 160.75061393 -183.50390625 155.4296875 C-185.69763966 152.76374368 -187.9381358 150.14788615 -190.19921875 147.53930664 C-211.45874139 123.00160319 -211.45874139 123.00160319 -211.0859375 109.87890625 C-210.34396549 101.18424839 -207.14083827 95.58484935 -200.80859375 89.62890625 C-193.65246484 83.71923422 -187.87964704 83.02495884 -178.80859375 83.62890625 C-167.94361928 86.43881344 -159.88094626 97.47053706 -152.80859375 105.62890625 C-150.18808679 108.61746691 -150.18808679 108.61746691 -147.5625 111.6015625 C-146.27562292 113.0890663 -145.01635682 114.60057496 -143.7734375 116.125 C-143.08378906 116.95128906 -142.39414062 117.77757812 -141.68359375 118.62890625 C-141.06226563 119.39203125 -140.4409375 120.15515625 -139.80078125 120.94140625 C-137.90994452 122.83704149 -137.90994452 122.83704149 -135.26171875 123.04296875 C-128.17175918 121.84625583 -123.36249615 112.61340453 -119.21289062 107.24438477 C-115.8218726 102.86815408 -112.30659235 98.62716152 -108.68359375 94.44140625 C-104.46850985 89.56873983 -100.32913952 84.64912294 -96.265625 79.6484375 C-93.23259424 75.92104039 -90.17749554 72.2121453 -87.12109375 68.50390625 C-85.90885235 67.03255358 -84.69661279 65.56119939 -83.484375 64.08984375 C-82.57099365 62.98141113 -82.57099365 62.98141113 -81.63916016 61.85058594 C-78.69491787 58.27728575 -75.75179735 54.70306197 -72.80859375 51.12890625 C-71.64193279 49.71223488 -70.47526612 48.29556822 -69.30859375 46.87890625 C-68.73109375 46.17765625 -68.15359375 45.47640625 -67.55859375 44.75390625 C-65.80859375 42.62890625 -64.05859375 40.50390625 -62.30859375 38.37890625 C-61.73069092 37.67701172 -61.15278809 36.97511719 -60.55737305 36.25195312 C-59.39539188 34.84128884 -58.23279812 33.43112892 -57.06958008 32.02148438 C-54.07589607 28.39196254 -51.09470141 24.75318678 -48.1328125 21.09765625 C-21.0954499 -12.1985221 -21.0954499 -12.1985221 0 0 Z " fill="#6D96FD" transform="translate(611.80859375,414.37109375)"/>
<path d="M0 0 C8.1581398 5.24929487 14.60804375 12.95940145 20.90625 20.2265625 C22.62985163 22.19692705 24.35397349 24.16683537 26.078125 26.13671875 C27.46720733 27.72466543 28.85182833 29.31651604 30.234375 30.91015625 C31.03359375 31.81894531 31.8328125 32.72773437 32.65625 33.6640625 C33.39359375 34.50839844 34.1309375 35.35273437 34.890625 36.22265625 C36.83061377 38.44835267 36.83061377 38.44835267 39.90625 39.2265625 C39.57625 40.5465625 39.24625 41.8665625 38.90625 43.2265625 C36.92625 43.7215625 36.92625 43.7215625 34.90625 44.2265625 C34.20242188 43.38996094 33.49859375 42.55335938 32.7734375 41.69140625 C26.57834229 34.37350315 20.22924031 27.24601865 13.62841797 20.29077148 C11.19097628 17.71502276 8.88667651 15.2008635 6.734375 12.375 C4.20581894 9.40340634 1.64141825 9.01669424 -2.09375 8.2265625 C-1.76375 7.2365625 -1.43375 6.2465625 -1.09375 5.2265625 C-4.06375 4.8965625 -7.03375 4.5665625 -10.09375 4.2265625 C-10.09375 3.5665625 -10.09375 2.9065625 -10.09375 2.2265625 C-12.73375 1.8965625 -15.37375 1.5665625 -18.09375 1.2265625 C-13.43695648 -3.43023102 -5.61752554 -2.73216015 0 0 Z " fill="#B8C9EE" transform="translate(438.09375,499.7734375)"/>
<path d="M0 0 C2.52919704 1.82774005 4.34080294 3.80568082 6 6.4453125 C5.44183594 6.15785156 4.88367188 5.87039063 4.30859375 5.57421875 C1.92508891 4.40868085 -0.47864894 3.37923443 -2.9375 2.3828125 C-3.77152344 2.04121094 -4.60554687 1.69960938 -5.46484375 1.34765625 C-9.60708497 -0.12670079 -13.55069917 -0.7215254 -17.9375 -0.8046875 C-18.75089844 -0.83046875 -19.56429687 -0.85625 -20.40234375 -0.8828125 C-31.24304739 0.48653954 -38.07037574 12.15164088 -44.3125 20.1953125 C-44.99058716 21.07376831 -44.99058716 21.07376831 -45.68237305 21.9699707 C-49.14329013 26.42938017 -52.77388081 30.70596586 -56.5 34.9453125 C-61.74029771 40.91168024 -66.7094124 47.04018956 -71.5625 53.32421875 C-73.9818613 56.42208683 -76.46847467 59.43912617 -79 62.4453125 C-79.99 62.1153125 -80.98 61.7853125 -82 61.4453125 C-81.23816406 60.56230469 -80.47632813 59.67929687 -79.69140625 58.76953125 C-73.35528829 51.41089352 -67.11581206 43.98889686 -61 36.4453125 C-58.86403856 33.82795066 -56.72477114 31.21337855 -54.58203125 28.6015625 C-52.59019058 26.17213859 -50.6126154 23.7314673 -48.63671875 21.2890625 C-21.37062769 -12.30217055 -21.37062769 -12.30217055 0 0 Z " fill="#839ED9" transform="translate(612,414.5546875)"/>
<path d="M0 0 C2.52919704 1.82774005 4.34080294 3.80568082 6 6.4453125 C5.44183594 6.15785156 4.88367188 5.87039063 4.30859375 5.57421875 C1.92508891 4.40868085 -0.47864894 3.37923443 -2.9375 2.3828125 C-3.77152344 2.04121094 -4.60554687 1.69960938 -5.46484375 1.34765625 C-9.60708497 -0.12670079 -13.55069917 -0.7215254 -17.9375 -0.8046875 C-18.75089844 -0.83046875 -19.56429687 -0.85625 -20.40234375 -0.8828125 C-26.46570687 -0.116914 -30.01871327 3.13381131 -33.875 7.6328125 C-34.65617188 8.53386719 -35.43734375 9.43492187 -36.2421875 10.36328125 C-36.82226562 11.05035156 -37.40234375 11.73742187 -38 12.4453125 C-38.33 11.4553125 -38.66 10.4653125 -39 9.4453125 C-27.9464792 -2.40886575 -15.58003762 -8.96877166 0 0 Z " fill="#9AB5F1" transform="translate(612,414.5546875)"/>
<path d="M0 0 C0.99 0.33 1.98 0.66 3 1 C-4.60276813 5.4581677 -11.07162674 8.63823363 -20 7 C-27.26070039 4.47859922 -27.26070039 4.47859922 -29 1 C-22.33333333 1.93333333 -22.33333333 1.93333333 -19.1875 2.5625 C-11.90973207 3.56140932 -6.53529374 3.66614039 0 0 Z " fill="#5479DD" transform="translate(492,607)"/>
<path d="M0 0 C0.7425 0.495 0.7425 0.495 1.5 1 C-0.81 1 -3.12 1 -5.5 1 C-4.81292969 1.31453125 -4.12585938 1.6290625 -3.41796875 1.953125 C-2.51691406 2.38109375 -1.61585938 2.8090625 -0.6875 3.25 C0.65248047 3.87648438 0.65248047 3.87648438 2.01953125 4.515625 C4.60928331 6.06539789 5.88180834 7.48400766 7.5 10 C5.19 9.67 2.88 9.34 0.5 9 C0.83 8.01 1.16 7.02 1.5 6 C-1.47 5.67 -4.44 5.34 -7.5 5 C-7.5 4.34 -7.5 3.68 -7.5 3 C-10.14 2.67 -12.78 2.34 -15.5 2 C-11.4398483 -2.0601517 -5.1299656 -2.05198624 0 0 Z " fill="#97B3F2" transform="translate(435.5,499)"/>
<path d="M0 0 C0.33 0.99 0.66 1.98 1 3 C-0.6717145 5.49275158 -2.35491827 7.75125268 -4.25 10.0625 C-4.75402344 10.69994141 -5.25804687 11.33738281 -5.77734375 11.99414062 C-8.09399033 14.87930809 -9.87974835 16.91983223 -13 19 C-12.39810734 15.76911507 -11.35126443 13.8604913 -9.27734375 11.328125 C-8.73916016 10.66425781 -8.20097656 10.00039063 -7.64648438 9.31640625 C-7.08251953 8.63449219 -6.51855469 7.95257813 -5.9375 7.25 C-5.36966797 6.55261719 -4.80183594 5.85523438 -4.21679688 5.13671875 C-2.81712814 3.41947812 -1.41144064 1.70756705 0 0 Z " fill="#96AAD7" transform="translate(572,425)"/>
<path d="M0 0 C0.33 0.99 0.66 1.98 1 3 C-0.6953125 5.5234375 -0.6953125 5.5234375 -3.125 8.375 C-4.30449219 9.77878906 -4.30449219 9.77878906 -5.5078125 11.2109375 C-7.91792084 13.90814339 -10.41536378 16.47055174 -13 19 C-12.39810734 15.76911507 -11.35126443 13.8604913 -9.27734375 11.328125 C-8.73916016 10.66425781 -8.20097656 10.00039063 -7.64648438 9.31640625 C-7.08251953 8.63449219 -6.51855469 7.95257813 -5.9375 7.25 C-5.36966797 6.55261719 -4.80183594 5.85523438 -4.21679688 5.13671875 C-2.81712814 3.41947812 -1.41144064 1.70756705 0 0 Z " fill="#8DA5DA" transform="translate(558,442)"/>
<path d="M0 0 C6.65071151 0.62742561 6.65071151 0.62742561 8.40625 2.5 C10.59288211 4.55800669 12.23213026 4.49559287 15.1875 4.6875 C16.08855469 4.75324219 16.98960937 4.81898438 17.91796875 4.88671875 C18.60503906 4.92410156 19.29210937 4.96148438 20 5 C20 5.33 20 5.66 20 6 C12.46062242 6.4989294 7.45805958 6.06618566 1 2 C0.67 1.34 0.34 0.68 0 0 Z " fill="#4662AC" transform="translate(463,608)"/>
<path d="M0 0 C9.88344059 0.61243542 9.88344059 0.61243542 13 4 C13 4.66 13 5.32 13 6 C7.71862571 5.48474397 4.42778844 3.74522883 0 1 C0 0.67 0 0.34 0 0 Z " fill="#C7D4F3" transform="translate(429,499)"/>
<path d="M0 0 C0.66 0.33 1.32 0.66 2 1 C0.98679687 1.90492188 0.98679687 1.90492188 -0.046875 2.828125 C-1.38492188 4.02695312 -1.38492188 4.02695312 -2.75 5.25 C-3.63171875 6.03890625 -4.5134375 6.8278125 -5.421875 7.640625 C-7.67866165 9.70592672 -9.85739926 11.81735064 -12 14 C-11.47120643 9.945916 -9.43668381 8.09470993 -6.5625 5.3125 C-5.75941406 4.52488281 -4.95632813 3.73726563 -4.12890625 2.92578125 C-2 1 -2 1 0 0 Z " fill="#ABBDE5" transform="translate(585,413)"/>
<path d="M0 0 C0.33 0.66 0.66 1.32 1 2 C0.06421005 4.35981813 -0.93347808 6.69631264 -2 9 C-3.32 8.34 -4.64 7.68 -6 7 C-4.02 4.69 -2.04 2.38 0 0 Z " fill="#698BDC" transform="translate(488,527)"/>
<path d="M0 0 C0.66 0 1.32 0 2 0 C1.01 4.62 0.02 9.24 -1 14 C-1.33 14 -1.66 14 -2 14 C-2.1799928 8.78020872 -1.97094808 4.92737019 0 0 Z " fill="#7DA2F8" transform="translate(403,515)"/>
<path d="M0 0 C0.33 0.99 0.66 1.98 1 3 C-0.40445835 5.2636564 -2.1967913 7.0208685 -4 9 C-4.33 8.01 -4.66 7.02 -5 6 C-3.59554165 3.7363436 -1.8032087 1.9791315 0 0 Z " fill="#8CA1CE" transform="translate(558,442)"/>
<path d="M0 0 C-1.28965176 1.37562854 -2.62689293 2.70766393 -4 4 C-4.66 4 -5.32 4 -6 4 C-6 2.68 -6 1.36 -6 0 C-3 -1 -3 -1 0 0 Z " fill="#7A9EF6" transform="translate(411,510)"/>
<path d="M0 0 C3.53600465 1.91135386 5.78972846 3.62642766 8 7 C5.33333333 5.66666667 2.66666667 4.33333333 0 3 C0 2.01 0 1.02 0 0 Z " fill="#90ACE7" transform="translate(610,414)"/>
</svg>
